<svg xmlns="http://www.w3.org/2000/svg" xmlns:xlink="http://www.w3.org/1999/xlink" width="100" zoomAndPan="magnify" viewBox="0 0 75 74.999997" height="100" preserveAspectRatio="xMidYMid meet" version="1.2"><g id="2fce5e6696"><rect x="0" width="75" y="0" height="74.999997" style="fill:#ffffff;fill-opacity:1;stroke:none;"/><path style="fill-rule:nonzero;fill:#ffffff;fill-opacity:1;stroke-width:1;stroke-linecap:butt;stroke-linejoin:miter;stroke:#000000;stroke-opacity:1;stroke-miterlimit:4;" d="M 2.000624 2.500782 L 8.999375 2.500782 M 9.999688 2.500782 L 12.000313 2.500782 M 13.000625 2.500782 L 13.999219 2.500782 M 17.000157 2.500782 L 20.999688 2.500782 M 24.000626 2.500782 L 30.999377 2.500782 M 2.000624 3.499376 L 2.999218 3.499376 M 8.000781 3.499376 L 8.999375 3.499376 M 11 3.499376 L 13.000625 3.499376 M 13.999219 3.499376 L 17.000157 3.499376 M 18.00047 3.499376 L 19.000782 3.499376 M 19.999376 3.499376 L 20.999688 3.499376 M 24.000626 3.499376 L 24.99922 3.499376 M 30.000783 3.499376 L 30.999377 3.499376 M 2.000624 4.499688 L 2.999218 4.499688 M 3.999531 4.499688 L 7.000469 4.499688 M 8.000781 4.499688 L 8.999375 4.499688 M 9.999688 4.499688 L 12.000313 4.499688 M 13.999219 4.499688 L 14.999532 4.499688 M 15.999844 4.499688 L 19.999376 4.499688 M 22.000001 4.499688 L 23.000314 4.499688 M 24.000626 4.499688 L 24.99922 4.499688 M 25.999533 4.499688 L 29.00047 4.499688 M 30.000783 4.499688 L 30.999377 4.499688 M 2.000624 5.500001 L 2.999218 5.500001 M 3.999531 5.500001 L 7.000469 5.500001 M 8.000781 5.500001 L 8.999375 5.500001 M 11 5.500001 L 12.000313 5.500001 M 13.000625 5.500001 L 13.999219 5.500001 M 15.999844 5.500001 L 17.000157 5.500001 M 19.000782 5.500001 L 20.999688 5.500001 M 22.000001 5.500001 L 23.000314 5.500001 M 24.000626 5.500001 L 24.99922 5.500001 M 25.999533 5.500001 L 29.00047 5.500001 M 30.000783 5.500001 L 30.999377 5.500001 M 2.000624 6.500313 L 2.999218 6.500313 M 3.999531 6.500313 L 7.000469 6.500313 M 8.000781 6.500313 L 8.999375 6.500313 M 11 6.500313 L 13.999219 6.500313 M 14.999532 6.500313 L 18.00047 6.500313 M 19.999376 6.500313 L 20.999688 6.500313 M 24.000626 6.500313 L 24.99922 6.500313 M 25.999533 6.500313 L 29.00047 6.500313 M 30.000783 6.500313 L 30.999377 6.500313 M 2.000624 7.500626 L 2.999218 7.500626 M 8.000781 7.500626 L 8.999375 7.500626 M 9.999688 7.500626 L 12.000313 7.500626 M 13.000625 7.500626 L 13.999219 7.500626 M 17.000157 7.500626 L 18.00047 7.500626 M 19.000782 7.500626 L 20.999688 7.500626 M 24.000626 7.500626 L 24.99922 7.500626 M 30.000783 7.500626 L 30.999377 7.500626 M 2.000624 8.49922 L 8.999375 8.49922 M 9.999688 8.49922 L 11 8.49922 M 12.000313 8.49922 L 13.000625 8.49922 M 13.999219 8.49922 L 14.999532 8.49922 M 15.999844 8.49922 L 17.000157 8.49922 M 18.00047 8.49922 L 19.000782 8.49922 M 19.999376 8.49922 L 20.999688 8.49922 M 22.000001 8.49922 L 23.000314 8.49922 M 24.000626 8.49922 L 30.999377 8.49922 M 11 9.499532 L 13.999219 9.499532 M 15.999844 9.499532 L 19.000782 9.499532 M 20.999688 9.499532 L 23.000314 9.499532 M 2.000624 10.499845 L 2.999218 10.499845 M 3.999531 10.499845 L 4.999843 10.499845 M 8.000781 10.499845 L 9.999688 10.499845 M 11 10.499845 L 13.999219 10.499845 M 14.999532 10.499845 L 17.000157 10.499845 M 22.000001 10.499845 L 23.000314 10.499845 M 24.99922 10.499845 L 25.999533 10.499845 M 28.000158 10.499845 L 29.00047 10.499845 M 30.000783 10.499845 L 30.999377 10.499845 M 2.000624 11.500158 L 8.000781 11.500158 M 14.999532 11.500158 L 17.000157 11.500158 M 20.999688 11.500158 L 25.999533 11.500158 M 29.00047 11.500158 L 30.999377 11.500158 M 2.000624 12.50047 L 2.999218 12.50047 M 6.000156 12.50047 L 7.000469 12.50047 M 8.000781 12.50047 L 9.999688 12.50047 M 11 12.50047 L 13.999219 12.50047 M 17.000157 12.50047 L 18.00047 12.50047 M 19.000782 12.50047 L 19.999376 12.50047 M 20.999688 12.50047 L 22.000001 12.50047 M 23.000314 12.50047 L 24.000626 12.50047 M 26.999845 12.50047 L 29.00047 12.50047 M 30.000783 12.50047 L 30.999377 12.50047 M 2.000624 13.500783 L 2.999218 13.500783 M 3.999531 13.500783 L 7.000469 13.500783 M 8.999375 13.500783 L 9.999688 13.500783 M 13.000625 13.500783 L 13.999219 13.500783 M 14.999532 13.500783 L 15.999844 13.500783 M 20.999688 13.500783 L 23.000314 13.500783 M 24.99922 13.500783 L 28.000158 13.500783 M 2.999218 14.499377 L 8.999375 14.499377 M 13.000625 14.499377 L 13.999219 14.499377 M 14.999532 14.499377 L 15.999844 14.499377 M 17.000157 14.499377 L 19.000782 14.499377 M 22.000001 14.499377 L 25.999533 14.499377 M 30.000783 14.499377 L 30.999377 14.499377 M 4.999843 15.499689 L 6.000156 15.499689 M 7.000469 15.499689 L 8.000781 15.499689 M 8.999375 15.499689 L 9.999688 15.499689 M 11 15.499689 L 12.000313 15.499689 M 13.000625 15.499689 L 13.999219 15.499689 M 18.00047 15.499689 L 19.000782 15.499689 M 20.999688 15.499689 L 23.000314 15.499689 M 24.000626 15.499689 L 25.999533 15.499689 M 29.00047 15.499689 L 30.999377 15.499689 M 4.999843 16.500002 L 6.000156 16.500002 M 8.000781 16.500002 L 8.999375 16.500002 M 9.999688 16.500002 L 11 16.500002 M 12.000313 16.500002 L 13.000625 16.500002 M 14.999532 16.500002 L 17.000157 16.500002 M 18.00047 16.500002 L 19.999376 16.500002 M 20.999688 16.500002 L 23.000314 16.500002 M 24.99922 16.500002 L 26.999845 16.500002 M 30.000783 16.500002 L 30.999377 16.500002 M 2.999218 17.500314 L 4.999843 17.500314 M 6.000156 17.500314 L 8.000781 17.500314 M 8.999375 17.500314 L 13.000625 17.500314 M 15.999844 17.500314 L 19.000782 17.500314 M 19.999376 17.500314 L 24.000626 17.500314 M 24.99922 17.500314 L 25.999533 17.500314 M 2.999218 18.500627 L 4.999843 18.500627 M 8.000781 18.500627 L 8.999375 18.500627 M 9.999688 18.500627 L 11 18.500627 M 12.000313 18.500627 L 13.000625 18.500627 M 13.999219 18.500627 L 17.000157 18.500627 M 18.00047 18.500627 L 19.000782 18.500627 M 22.000001 18.500627 L 23.000314 18.500627 M 24.000626 18.500627 L 25.999533 18.500627 M 30.000783 18.500627 L 30.999377 18.500627 M 2.999218 19.499221 L 3.999531 19.499221 M 6.000156 19.499221 L 7.000469 19.499221 M 8.999375 19.499221 L 13.000625 19.499221 M 14.999532 19.499221 L 17.000157 19.499221 M 19.999376 19.499221 L 22.000001 19.499221 M 24.000626 19.499221 L 25.999533 19.499221 M 28.000158 19.499221 L 30.999377 19.499221 M 2.000624 20.499533 L 4.999843 20.499533 M 6.000156 20.499533 L 11 20.499533 M 12.000313 20.499533 L 14.999532 20.499533 M 17.000157 20.499533 L 18.00047 20.499533 M 19.999376 20.499533 L 24.99922 20.499533 M 25.999533 20.499533 L 28.000158 20.499533 M 30.000783 20.499533 L 30.999377 20.499533 M 4.999843 21.499846 L 6.000156 21.499846 M 7.000469 21.499846 L 8.000781 21.499846 M 12.000313 21.499846 L 13.000625 21.499846 M 13.999219 21.499846 L 15.999844 21.499846 M 17.000157 21.499846 L 19.000782 21.499846 M 20.999688 21.499846 L 22.000001 21.499846 M 23.000314 21.499846 L 25.999533 21.499846 M 2.000624 22.500158 L 8.999375 22.500158 M 9.999688 22.500158 L 13.000625 22.500158 M 13.999219 22.500158 L 15.999844 22.500158 M 18.00047 22.500158 L 19.000782 22.500158 M 19.999376 22.500158 L 28.000158 22.500158 M 29.00047 22.500158 L 30.000783 22.500158 M 9.999688 23.500471 L 11 23.500471 M 12.000313 23.500471 L 13.000625 23.500471 M 13.999219 23.500471 L 14.999532 23.500471 M 17.000157 23.500471 L 18.00047 23.500471 M 19.000782 23.500471 L 19.999376 23.500471 M 22.000001 23.500471 L 23.000314 23.500471 M 25.999533 23.500471 L 29.00047 23.500471 M 30.000783 23.500471 L 30.999377 23.500471 M 2.000624 24.500784 L 8.999375 24.500784 M 9.999688 24.500784 L 11 24.500784 M 12.000313 24.500784 L 13.000625 24.500784 M 14.999532 24.500784 L 18.00047 24.500784 M 22.000001 24.500784 L 23.000314 24.500784 M 24.000626 24.500784 L 24.99922 24.500784 M 25.999533 24.500784 L 26.999845 24.500784 M 30.000783 24.500784 L 30.999377 24.500784 M 2.000624 25.499377 L 2.999218 25.499377 M 8.000781 25.499377 L 8.999375 25.499377 M 13.999219 25.499377 L 14.999532 25.499377 M 15.999844 25.499377 L 17.000157 25.499377 M 18.00047 25.499377 L 19.000782 25.499377 M 20.999688 25.499377 L 23.000314 25.499377 M 25.999533 25.499377 L 26.999845 25.499377 M 2.000624 26.49969 L 2.999218 26.49969 M 3.999531 26.49969 L 7.000469 26.49969 M 8.000781 26.49969 L 8.999375 26.49969 M 12.000313 26.49969 L 13.999219 26.49969 M 14.999532 26.49969 L 17.000157 26.49969 M 18.00047 26.49969 L 19.000782 26.49969 M 20.999688 26.49969 L 28.000158 26.49969 M 29.00047 26.49969 L 30.999377 26.49969 M 2.000624 27.500003 L 2.999218 27.500003 M 3.999531 27.500003 L 7.000469 27.500003 M 8.000781 27.500003 L 8.999375 27.500003 M 11 27.500003 L 13.000625 27.500003 M 13.999219 27.500003 L 14.999532 27.500003 M 15.999844 27.500003 L 19.000782 27.500003 M 20.999688 27.500003 L 22.000001 27.500003 M 23.000314 27.500003 L 24.000626 27.500003 M 25.999533 27.500003 L 29.00047 27.500003 M 30.000783 27.500003 L 30.999377 27.500003 M 2.000624 28.500315 L 2.999218 28.500315 M 3.999531 28.500315 L 7.000469 28.500315 M 8.000781 28.500315 L 8.999375 28.500315 M 9.999688 28.500315 L 12.000313 28.500315 M 13.999219 28.500315 L 18.00047 28.500315 M 19.999376 28.500315 L 20.999688 28.500315 M 22.000001 28.500315 L 24.000626 28.500315 M 25.999533 28.500315 L 26.999845 28.500315 M 29.00047 28.500315 L 30.999377 28.500315 M 2.000624 29.500628 L 2.999218 29.500628 M 8.000781 29.500628 L 8.999375 29.500628 M 11 29.500628 L 12.000313 29.500628 M 13.000625 29.500628 L 13.999219 29.500628 M 17.000157 29.500628 L 19.000782 29.500628 M 19.999376 29.500628 L 24.99922 29.500628 M 25.999533 29.500628 L 28.000158 29.500628 M 2.000624 30.499222 L 8.999375 30.499222 M 9.999688 30.499222 L 11 30.499222 M 13.999219 30.499222 L 14.999532 30.499222 M 15.999844 30.499222 L 17.000157 30.499222 M 18.00047 30.499222 L 19.000782 30.499222 M 22.000001 30.499222 L 26.999845 30.499222 M 30.000783 30.499222 L 30.999377 30.499222 " transform="matrix(2.272727,0,0,2.272727,0.0000015,-0.000001)"/></g></svg>